# Blender v3.2.0 OBJ File: 'untitled.blend'
# www.blender.org
mtllib UPlain.mtl
o Cube.002_Cube.017
v -0.500000 0.000000 0.500000
v -0.500000 1.000000 0.500000
v -0.500000 0.000000 -0.500000
v -0.500000 1.000000 -0.500000
v 0.500000 0.000000 0.500000
v 0.500000 1.000000 0.500000
v 0.500000 0.000000 -0.500000
v 0.500000 1.000000 -0.500000
vt 1.000000 0.500000
vt 0.500000 0.000000
vt 1.000000 0.000000
vt 0.500000 1.000000
vt 0.000000 0.500000
vt 0.500000 0.500000
vt 0.500000 0.000000
vt 0.000000 0.500000
vt 0.000000 0.000000
vt 0.500000 0.500000
vt 0.000000 1.000000
vt 0.500000 0.500000
vn -1.0000 0.0000 0.0000
vn 1.0000 0.0000 0.0000
vn 0.0000 1.0000 0.0000
usemtl Material.001
s off
f 2/1/1 3/2/1 1/3/1
f 8/4/2 5/5/2 7/6/2
f 4/7/3 6/8/3 8/9/3
f 2/1/1 4/10/1 3/2/1
f 8/4/2 6/11/2 5/5/2
f 4/7/3 2/12/3 6/8/3
